<svg viewBox="0 0 24 24" xmlns="http://www.w3.org/2000/svg" fill-rule="evenodd" clip-rule="evenodd" stroke-linejoin="round" stroke-miterlimit="2"><path d="M20.4 6h-1.2V0H4.8v6H3.6A3.604 3.604 0 0 0 0 9.6V18c0 1.324 1.076 2.4 2.4 2.4h2.4V24h14.4v-3.6h2.4c1.324 0 2.4-1.076 2.4-2.4V9.6C24 7.615 22.385 6 20.4 6zM7.2 2.4h9.6V6H7.2V2.4zm9.6 19.2H7.2v-4.8h9.6v4.8zm4.8-3.6h-2.4v-3.6H4.8V18H2.4V9.6c0-.661.539-1.2 1.2-1.2h16.8c.662 0 1.2.539 1.2 1.2V18z" fill="#de6370" fill-rule="nonzero"/><path fill="#de6370" fill-rule="nonzero" d="M14.4 9.6h4.8V12h-4.8z"/></svg>