<svg viewBox="0 0 24 24" xmlns="http://www.w3.org/2000/svg" fill-rule="evenodd" clip-rule="evenodd" stroke-linejoin="round" stroke-miterlimit="2"><path d="M12 0C8.535 0 5.684 2.851 5.684 6.316S8.535 12.632 12 12.632s6.316-2.851 6.316-6.316S15.465 0 12 0zm0 10.105c-2.08 0-3.79-1.71-3.79-3.79 0-2.078 1.71-3.789 3.79-3.789s3.79 1.71 3.79 3.79c0 2.079-1.71 3.79-3.79 3.79zM23.368 24v-1.263c0-4.85-3.991-8.842-8.842-8.842H9.474c-4.85 0-8.842 3.991-8.842 8.842V24h2.526v-1.263c0-3.465 2.85-6.316 6.316-6.316h5.052c3.465 0 6.316 2.851 6.316 6.316V24h2.526z" fill="#de6370" fill-rule="nonzero"/></svg>