<svg viewBox="0 0 24 24" xmlns="http://www.w3.org/2000/svg" fill-rule="evenodd" clip-rule="evenodd" stroke-linejoin="round" stroke-miterlimit="2"><path d="M10.264 20.526c2.277 0 4.489-.764 6.282-2.166l5.64 5.64L24 22.186l-5.64-5.64a10.199 10.199 0 0 0 2.167-6.284C20.527 4.603 15.923 0 10.264 0 4.604-.001 0 4.603 0 10.262c0 5.66 4.604 10.264 10.264 10.264zm0-17.961c4.245 0 7.697 3.452 7.697 7.697s-3.452 7.698-7.697 7.698c-4.246 0-7.698-3.453-7.698-7.698 0-4.245 3.452-7.697 7.698-7.697z" fill="#fff" fill-rule="nonzero"/><path d="M12.075 8.448c.486.488.754 1.132.754 1.814h2.566a5.102 5.102 0 0 0-1.506-3.628c-1.942-1.94-5.31-1.94-7.251 0l1.811 1.817c.975-.973 2.656-.97 3.626-.003z" fill="#fff" fill-rule="nonzero"/></svg>